<?xml version="1.0" encoding="UTF-8"?>
<svg
  xmlns="http://www.w3.org/2000/svg"
  viewBox="0 0 1200 240"
  width="800"
  height="240"
  role="img"
  aria-label="create-harper logo"
>
  <defs>
    <!-- Brand-ish gradient for the wordmark -->
    <linearGradient id="harperGrad" x1="0" y1="0" x2="1" y2="0">
      <stop offset="0%" stop-color="#45b581" />
      <stop offset="55%" stop-color="#2fe7a4" />
      <stop offset="100%" stop-color="#45b581" />
    </linearGradient>

    <!-- Subtle shadow -->
    <filter id="softShadow" x="-20%" y="-20%" width="140%" height="140%">
      <feDropShadow dx="0" dy="2" stdDeviation="3" flood-opacity="0.18" />
    </filter>

    <!-- From your dog SVG (vector-only): palette classes -->
    <style>
    .dog-cls-1{fill:none;}
    .dog-cls-3{fill:#312556;}
    .dog-cls-4{fill:#d71969;}
    .dog-cls-5{fill:#403b8a;}
    .dog-cls-6{fill:#703a88;}
    .dog-cls-7{fill:#45b581;}
    .mono { font-family: ui-monospace, SFMono-Regular, Menlo, Monaco, Consolas, "Liberation Mono", "Courier New", monospace; }
    .sans { font-family: ui-sans-serif, system-ui, -apple-system, Segoe UI, Roboto, Helvetica, Arial, "Apple Color Emoji","Segoe UI Emoji"; }
    </style>
  </defs>

  <!-- Background (transparent by default). Uncomment for white:
  <rect width="1200" height="240" fill="#ffffff"/> -->

  <!-- Dog mark (scaled + positioned) -->
  <g transform="translate(40 26) scale(0.82)" filter="url(#softShadow)">
    <!-- Vector geometry copied from your dog SVG (excluding the huge embedded PNG layer) -->
    <!-- Source:  [oai_citation:2‡HDBDogOnly.txt](sediment://file_000000006c9c71f5887e268f915d2f86) -->
    <polygon
      class="dog-cls-5"
      points="158.29 155.75 149.42 207.67 102.57 227.93 149.42 154.49 158.29 155.75"
    />
    <polygon
      class="dog-cls-5"
      points="31.66 164.62 0 138.02 21.53 75.98 31.66 164.62"
    />
    <polygon
      class="dog-cls-6"
      points="127.89 11.4 106.57 26.31 77.24 0 120.3 0 127.89 11.4"
    />
    <polygon
      class="dog-cls-6"
      points="110.44 153.77 102.57 227.93 31.66 164.62 110.44 153.77"
    />
    <polygon
      class="dog-cls-7"
      points="106.57 26.31 64.8 137.37 44.78 36.37 44.78 36.36 106.57 26.31"
    />
    <polygon
      class="dog-cls-5"
      points="258.33 103.1 192.47 69.65 221.6 164.62 262.12 116.5 258.33 103.1"
    />
    <polygon
      class="dog-cls-7"
      points="192.47 69.65 158.86 68.28 127.89 11.4 174.75 21.53 192.47 69.65"
    />
    <polygon
      class="dog-cls-6"
      points="44.78 36.37 21.53 75.98 11.4 49.38 44.78 36.37"
    />
    <polygon
      class="dog-cls-6"
      points="221.6 164.62 192.47 69.65 167.42 67.33 155.75 157.02 221.6 164.62"
    />
    <polygon
      class="dog-cls-4"
      points="106.57 26.31 44.78 36.36 77.24 0 106.57 26.31"
    />
    <polygon
      class="dog-cls-4"
      points="77.24 0 44.78 36.36 44.78 36.37 11.4 49.38 77.24 0"
    />
    <polygon
      class="dog-cls-4"
      points="167.42 67.33 158.32 156.5 110.44 153.74 99.53 123.9 167.42 67.33"
    />
    <polygon
      class="dog-cls-3"
      points="110.44 153.76 31.66 164.62 21.53 75.98 64.8 137.37 99.53 123.92 110.44 153.76"
    />
    <polygon
      class="dog-cls-3"
      points="106.57 26.31 167.42 67.33 99.53 123.92 106.57 26.31"
    />
    <polygon
      class="dog-cls-3"
      points="64.8 137.37 106.57 26.31 99.53 123.92 64.8 137.37"
    />
    <polygon
      class="dog-cls-6"
      points="44.78 36.37 64.8 137.37 21.53 75.98 44.78 36.37"
    />
    <polygon
      class="dog-cls-6"
      points="106.57 26.31 127.89 11.4 167.42 67.33 106.57 26.31"
    />
  </g>

  <!-- Wordmark + tagline -->
  <g transform="translate(320 58)">
    <text
      class="sans"
      x="0"
      y="62"
      font-size="96"
      font-weight="800"
      letter-spacing="-1.5"
      fill="url(#harperGrad)"
    >create-harper</text>

    <!-- little “terminal” capsule -->
    <g transform="translate(0 90)">
      <rect
        x="0"
        y="0"
        rx="14"
        ry="14"
        width="800"
        height="56"
        fill="#0b1020"
        opacity="0.92"
      />
      <circle cx="22" cy="28" r="6" fill="#ff5f56" />
      <circle cx="42" cy="28" r="6" fill="#ffbd2e" />
      <circle cx="62" cy="28" r="6" fill="#27c93f" />

      <text
        class="mono"
        x="90"
        y="37"
        font-size="22"
        fill="#e6f7ff"
        opacity="0.96"
      >$ npm create harper</text>

      <!-- blinking cursor -->
      <rect x="350" y="17" width="3" height="24" fill="#e6f7ff" opacity="0.55">
        <animate
          attributeName="opacity"
          values="0.1;0.8;0.1"
          dur="1.1s"
          repeatCount="indefinite"
        />
      </rect>
    </g>
  </g>
</svg>
